<svg viewBox="0 0 56 56" xmlns="http://www.w3.org/2000/svg" xmlns:xlink="http://www.w3.org/1999/xlink" width="56.000000" height="56.000000" fill="none">
	<rect id="svg 6" width="56.000000" height="56.000000" x="0.000000" y="0.000000" transform="matrix(-1,0,0,1,56,0)" />
	<path id="矢量 17" d="M38.22 1.29864e-06L5.46 1.29864e-06C2.548 1.29864e-06 0 2.54188 0 5.44688L0 41.0331C0 43.9381 2.548 46.48 5.46 46.48L38.22 46.48C41.132 46.48 43.68 43.9381 43.68 41.0331L43.68 5.44688C43.68 2.54188 41.132 0 38.22 0L38.22 1.29864e-06ZM24.752 41.0331L19.292 41.0331L19.292 38.1281L24.752 38.1281L24.752 41.0331ZM24.752 35.5863L19.292 35.5863L19.292 30.1394L24.752 30.1394L24.752 35.5863ZM34.216 26.145L24.752 16.3406L24.752 27.2344L19.292 27.2344L19.292 16.3406L9.464 26.145L5.45999 21.7875L17.836 9.80437L21.84 5.44688L38.22 21.7875L34.216 26.145Z" fill="rgb(255,255,255)" fill-rule="nonzero" transform="matrix(-1,0,0,1,49.84,4.76001)" />
</svg>
